<svg xmlns="http://www.w3.org/2000/svg" viewBox="0 0 600 150">
  <!-- Switch body -->
  <rect x="10" y="30" width="580" height="90" rx="5" fill="#2c3e34" stroke="#1a1f1c" stroke-width="2"/>

  <!-- Front panel -->
  <rect x="20" y="40" width="560" height="70" fill="#1a1f1c"/>

  <!-- Port groups (24 ports in groups of 4) -->
  <g id="ports">
    <!-- Ports 1-4 -->
    <rect x="30" y="50" width="20" height="25" fill="#3a3a3a" stroke="#666" stroke-width="1"/>
    <rect x="55" y="50" width="20" height="25" fill="#3a3a3a" stroke="#666" stroke-width="1"/>
    <rect x="80" y="50" width="20" height="25" fill="#3a3a3a" stroke="#666" stroke-width="1"/>
    <rect x="105" y="50" width="20" height="25" fill="#3a3a3a" stroke="#666" stroke-width="1"/>

    <!-- Ports 5-8 -->
    <rect x="140" y="50" width="20" height="25" fill="#3a3a3a" stroke="#666" stroke-width="1"/>
    <rect x="165" y="50" width="20" height="25" fill="#3a3a3a" stroke="#666" stroke-width="1"/>
    <rect x="190" y="50" width="20" height="25" fill="#3a3a3a" stroke="#666" stroke-width="1"/>
    <rect x="215" y="50" width="20" height="25" fill="#3a3a3a" stroke="#666" stroke-width="1"/>

    <!-- Ports 9-12 -->
    <rect x="250" y="50" width="20" height="25" fill="#3a3a3a" stroke="#666" stroke-width="1"/>
    <rect x="275" y="50" width="20" height="25" fill="#3a3a3a" stroke="#666" stroke-width="1"/>
    <rect x="300" y="50" width="20" height="25" fill="#3a3a3a" stroke="#666" stroke-width="1"/>
    <rect x="325" y="50" width="20" height="25" fill="#3a3a3a" stroke="#666" stroke-width="1"/>

    <!-- Ports 13-16 -->
    <rect x="360" y="50" width="20" height="25" fill="#3a3a3a" stroke="#666" stroke-width="1"/>
    <rect x="385" y="50" width="20" height="25" fill="#3a3a3a" stroke="#666" stroke-width="1"/>
    <rect x="410" y="50" width="20" height="25" fill="#3a3a3a" stroke="#666" stroke-width="1"/>
    <rect x="435" y="50" width="20" height="25" fill="#3a3a3a" stroke="#666" stroke-width="1"/>

    <!-- Ports 17-20 -->
    <rect x="470" y="50" width="20" height="25" fill="#3a3a3a" stroke="#666" stroke-width="1"/>
    <rect x="495" y="50" width="20" height="25" fill="#3a3a3a" stroke="#666" stroke-width="1"/>
    <rect x="520" y="50" width="20" height="25" fill="#3a3a3a" stroke="#666" stroke-width="1"/>
    <rect x="545" y="50" width="20" height="25" fill="#3a3a3a" stroke="#666" stroke-width="1"/>
  </g>

  <!-- Port labels -->
  <text x="30" y="90" fill="#999" font-size="8" font-family="Arial">1-4</text>
  <text x="140" y="90" fill="#999" font-size="8" font-family="Arial">5-8</text>
  <text x="250" y="90" fill="#999" font-size="8" font-family="Arial">9-12</text>
  <text x="360" y="90" fill="#999" font-size="8" font-family="Arial">13-16</text>
  <text x="470" y="90" fill="#999" font-size="8" font-family="Arial">17-20</text>
  <text x="520" y="90" fill="#999" font-size="8" font-family="Arial">21-24</text>

  <!-- Status LEDs -->
  <circle cx="50" y="85" r="3" fill="#00ff00"/>
  <circle cx="160" cy="85" r="3" fill="#00ff00"/>
  <circle cx="270" cy="85" r="3" fill="#00ff00"/>
  <circle cx="380" cy="85" r="3" fill="#00ff00"/>
  <circle cx="490" cy="85" r="3" fill="#00ff00"/>

  <!-- Cisco logo/text -->
  <text x="300" y="105" fill="#ccc" font-size="12" font-family="Arial" text-anchor="middle">CISCO C9200-24P</text>

  <!-- Power indicator -->
  <rect x="550" y="85" width="20" height="10" fill="#333" stroke="#666" stroke-width="1"/>
  <text x="560" y="93" fill="#0f0" font-size="8" font-family="Arial" text-anchor="middle">PWR</text>
</svg>